# xmcd
#
# Track frame offsets: 
#        150
#        12177
#        21505
#        38051
#        49472
#        66208
#        85196
#        104742
#        118844
#        134654
#        148441
#        162634
#        177011
#
# Disc length: 2612 seconds
#
# Revision: 1
# Processed by: cddbd v1.5.2PL0 Copyright (c) Steve Scherf et al.
# Submitted via: ExactAudioCopy v0.95b3
#
DISCID=c80a320d
DTITLE=Juke Box - Ir Sestdiena Klat
DYEAR=2003
DGENRE=Country
TTITLE0=Viens Vienigs Vards
TTITLE1=Ir Sestdiena Klat
TTITLE2=Nevajag Raudat (Neviens Nav Tik Vientuls Ka Tu)
TTITLE3=Manas Atminas
TTITLE4=Ja Tu Velies Man Lidzas But
TTITLE5=Neviens Tev Neatdos
TTITLE6=Ta Nemil Neviens Ka Tu
TTITLE7=Atkal Viens
TTITLE8=Vairak Man Nekas Nav Dots
TTITLE9=Katru Dienu
TTITLE10=Meness Valsis
TTITLE11=Luk, Mana Sirds
TTITLE12=Tevi Vien
EXTD=
EXTT0=
EXTT1=
EXTT2=
EXTT3=
EXTT4=
EXTT5=
EXTT6=
EXTT7=
EXTT8=
EXTT9=
EXTT10=
EXTT11=
EXTT12=
PLAYORDER=
